<?xml version="1.0" encoding="UTF-8"?>
<svg xmlns="http://www.w3.org/2000/svg" xmlns:xlink="http://www.w3.org/1999/xlink" width="574.57pt" height="149.41pt" viewBox="0 0 574.57 149.41" version="1.1">
<g id="surface1">
<path style=" stroke:none;fill-rule:nonzero;fill:rgb(100%,100%,100%);fill-opacity:1;" d="M 574.570313 149.410156 L 0 149.410156 L 0 -0.00390625 L 574.570313 -0.00390625 L 574.570313 149.410156 "/>
<path style=" stroke:none;fill-rule:nonzero;fill:rgb(2.352905%,15.293884%,41.175842%);fill-opacity:1;" d="M 98.28125 140.53125 L 8.875 140.53125 L 8.875 8.871094 L 98.28125 8.871094 L 98.28125 140.53125 "/>
<path style=" stroke:none;fill-rule:nonzero;fill:rgb(2.398682%,15.299988%,41.19873%);fill-opacity:1;" d="M 565.695313 140.53125 L 107.160156 140.53125 L 107.160156 8.878906 L 565.695313 8.878906 L 565.695313 140.53125 "/>
<path style=" stroke:none;fill-rule:nonzero;fill:rgb(100%,100%,100%);fill-opacity:1;" d="M 135.804688 49.730469 L 165.246094 49.730469 L 165.246094 57.589844 L 145.808594 57.589844 L 145.808594 69.882813 L 163.601563 69.882813 L 163.601563 77.742188 L 145.808594 77.742188 L 145.808594 91.746094 L 165.386719 91.746094 L 165.386719 99.609375 L 135.804688 99.609375 L 135.804688 49.730469 "/>
<path style=" stroke:none;fill-rule:nonzero;fill:rgb(100%,100%,100%);fill-opacity:1;" d="M 170.320313 62.808594 L 179.253906 62.808594 L 179.253906 67.953125 L 179.394531 67.953125 C 182.398438 63.449219 186.757813 61.949219 190.328125 61.949219 C 195.472656 61.949219 199.117188 63.878906 201.191406 68.453125 C 203.40625 64.023438 208.191406 61.949219 212.695313 61.949219 C 221.769531 61.949219 224.34375 68.167969 224.34375 76.382813 L 224.34375 99.609375 L 214.769531 99.609375 L 214.769531 77.671875 C 214.769531 74.242188 214.769531 69.382813 209.265625 69.382813 C 202.90625 69.382813 202.121094 76.957031 202.121094 81.742188 L 202.121094 99.609375 L 192.542969 99.609375 L 192.542969 77.671875 C 192.542969 74.242188 192.542969 69.382813 187.042969 69.382813 C 180.683594 69.382813 179.894531 76.957031 179.894531 81.742188 L 179.894531 99.609375 L 170.320313 99.609375 L 170.320313 62.808594 "/>
<path style=" stroke:none;fill-rule:nonzero;fill:rgb(100%,100%,100%);fill-opacity:1;" d="M 229.917969 62.808594 L 239.496094 62.808594 L 239.496094 99.609375 L 229.917969 99.609375 Z M 229.917969 46.945313 L 239.496094 46.945313 L 239.496094 56.089844 L 229.917969 56.089844 L 229.917969 46.945313 "/>
<path style=" stroke:none;fill-rule:nonzero;fill:rgb(100%,100%,100%);fill-opacity:1;" d="M 244.78125 62.808594 L 253.285156 62.808594 L 253.285156 71.167969 L 253.429688 71.167969 C 253.859375 67.738281 257.789063 61.949219 263.503906 61.949219 C 264.433594 61.949219 265.433594 61.949219 266.433594 62.234375 L 266.433594 71.882813 C 265.578125 71.382813 263.863281 71.097656 262.148438 71.097656 C 254.359375 71.097656 254.359375 80.816406 254.359375 86.101563 L 254.359375 99.609375 L 244.78125 99.609375 L 244.78125 62.808594 "/>
<path style=" stroke:none;fill-rule:nonzero;fill:rgb(100%,100%,100%);fill-opacity:1;" d="M 281.265625 93.460938 C 284.195313 93.460938 286.480469 92.175781 287.980469 90.175781 C 289.554688 88.105469 289.980469 85.460938 289.980469 82.601563 L 285.839844 82.601563 C 281.550781 82.601563 275.191406 83.316406 275.191406 88.960938 C 275.191406 92.105469 277.835938 93.460938 281.265625 93.460938 Z M 270.046875 64.738281 C 273.761719 63.023438 278.765625 61.949219 282.835938 61.949219 C 294.054688 61.949219 298.699219 66.59375 298.699219 77.457031 L 298.699219 82.171875 C 298.699219 85.886719 298.769531 88.675781 298.84375 91.390625 C 298.914063 94.175781 299.058594 96.75 299.269531 99.609375 L 290.839844 99.609375 C 290.480469 97.679688 290.480469 95.25 290.410156 94.105469 L 290.269531 94.105469 C 288.054688 98.179688 283.265625 100.46875 278.90625 100.46875 C 272.402344 100.46875 266.042969 96.535156 266.042969 89.53125 C 266.042969 84.03125 268.6875 80.816406 272.332031 79.027344 C 275.976563 77.242188 280.691406 76.886719 284.695313 76.886719 L 289.980469 76.886719 C 289.980469 70.953125 287.339844 68.953125 281.695313 68.953125 C 277.621094 68.953125 273.546875 70.523438 270.332031 72.953125 L 270.046875 64.738281 "/>
<path style=" stroke:none;fill-rule:nonzero;fill:rgb(100%,100%,100%);fill-opacity:1;" d="M 306.273438 69.808594 L 299.199219 69.808594 L 299.199219 62.808594 L 306.273438 62.808594 L 306.273438 55.449219 L 315.851563 52.375 L 315.851563 62.808594 L 324.355469 62.808594 L 324.355469 69.808594 L 315.851563 69.808594 L 315.851563 86.960938 C 315.851563 90.105469 316.710938 93.035156 320.351563 93.035156 C 322.066406 93.035156 323.710938 92.675781 324.710938 92.035156 L 324.996094 99.609375 C 322.996094 100.179688 320.78125 100.46875 317.921875 100.46875 C 310.421875 100.46875 306.273438 95.820313 306.273438 88.53125 L 306.273438 69.808594 "/>
<path style=" stroke:none;fill-rule:nonzero;fill:rgb(100%,100%,100%);fill-opacity:1;" d="M 350.4375 77.597656 C 350.148438 72.953125 348.007813 68.953125 342.648438 68.953125 C 337.289063 68.953125 334.570313 72.667969 334.144531 77.597656 Z M 356.867188 97.535156 C 353.363281 99.464844 349.363281 100.46875 344.21875 100.46875 C 332.070313 100.46875 324.996094 93.460938 324.996094 81.386719 C 324.996094 70.738281 330.644531 61.949219 342.074219 61.949219 C 355.726563 61.949219 359.582031 71.3125 359.582031 84.171875 L 334.144531 84.171875 C 334.570313 90.105469 338.71875 93.460938 344.648438 93.460938 C 349.292969 93.460938 353.296875 91.746094 356.867188 89.746094 L 356.867188 97.535156 "/>
<path style=" stroke:none;fill-rule:nonzero;fill:rgb(100%,100%,100%);fill-opacity:1;" d="M 385.382813 70.523438 C 382.449219 69.523438 380.308594 68.953125 376.808594 68.953125 C 374.234375 68.953125 371.160156 69.882813 371.160156 73.027344 C 371.160156 78.886719 387.8125 75.167969 387.8125 88.460938 C 387.8125 97.035156 380.164063 100.46875 372.375 100.46875 C 368.730469 100.46875 365.015625 99.824219 361.515625 98.894531 L 362.085938 91.035156 C 365.089844 92.535156 368.230469 93.460938 371.519531 93.460938 C 373.945313 93.460938 377.808594 92.535156 377.808594 88.960938 C 377.808594 81.742188 361.15625 86.675781 361.15625 73.382813 C 361.15625 65.453125 368.089844 61.949219 375.59375 61.949219 C 380.09375 61.949219 383.023438 62.664063 386.023438 63.308594 L 385.382813 70.523438 "/>
<path style=" stroke:none;fill-rule:nonzero;fill:rgb(100%,100%,100%);fill-opacity:1;" d="M 407.28125 49.730469 L 419.574219 49.730469 L 438.582031 87.03125 L 438.726563 87.03125 L 438.726563 49.730469 L 448.300781 49.730469 L 448.300781 99.609375 L 436.078125 99.609375 L 417.003906 62.308594 L 416.859375 62.308594 L 416.859375 99.609375 L 407.28125 99.609375 L 407.28125 49.730469 "/>
<path style=" stroke:none;fill-rule:nonzero;fill:rgb(100%,100%,100%);fill-opacity:1;" d="M 466.128906 91.746094 L 470.84375 91.746094 C 475.488281 91.746094 481.136719 90.605469 481.136719 84.816406 C 481.136719 78.3125 475.847656 77.3125 470.84375 77.3125 L 466.128906 77.3125 Z M 466.128906 69.882813 L 470.199219 69.882813 C 474.417969 69.882813 479.632813 68.953125 479.632813 63.808594 C 479.632813 58.019531 474.5625 57.589844 469.984375 57.589844 L 466.128906 57.589844 Z M 456.125 49.730469 L 473.5625 49.730469 C 479.988281 49.730469 489.640625 51.589844 489.640625 62.523438 C 489.640625 68.453125 485.636719 72.597656 479.703125 73.667969 L 479.703125 73.8125 C 486.492188 74.457031 491.140625 79.027344 491.140625 85.175781 C 491.140625 97.75 479.847656 99.609375 473.5625 99.609375 L 456.125 99.609375 L 456.125 49.730469 "/>
<path style=" stroke:none;fill-rule:nonzero;fill:rgb(100%,100%,100%);fill-opacity:1;" d="M 506.609375 91.746094 L 512.1875 91.746094 C 520.546875 91.746094 528.621094 85.53125 528.621094 74.667969 C 528.621094 63.808594 520.546875 57.589844 512.1875 57.589844 L 506.609375 57.589844 Z M 496.605469 49.730469 L 510.257813 49.730469 C 525.550781 49.730469 539.054688 54.875 539.054688 74.667969 C 539.054688 94.464844 525.550781 99.609375 510.257813 99.609375 L 496.605469 99.609375 L 496.605469 49.730469 "/>
<path style=" stroke:none;fill-rule:nonzero;fill:rgb(100%,100%,100%);fill-opacity:1;" d="M 45.703125 88.992188 C 46.890625 56.289063 64.367188 27.601563 90.949219 8.871094 L 73.359375 8.871094 C 51.820313 27.46875 38.03125 53.398438 36.972656 82.503906 C 36.207031 103.597656 42.238281 123.507813 53.273438 140.527344 L 58.300781 140.527344 C 49.640625 125.023438 45.03125 107.460938 45.703125 88.992188 "/>
<path style="fill:none;stroke-width:1;stroke-linecap:butt;stroke-linejoin:miter;stroke:rgb(100%,100%,100%);stroke-opacity:1;stroke-miterlimit:4;" d="M 457.03125 604.178125 C 468.90625 931.209375 643.671875 1218.084375 909.492188 1405.389062 L 733.59375 1405.389062 C 518.203125 1219.4125 380.3125 960.115625 369.726563 669.060937 C 362.070313 458.123437 422.382813 259.021875 532.734375 88.826562 L 583.007813 88.826562 C 496.40625 243.865625 450.3125 419.490625 457.03125 604.178125 Z M 457.03125 604.178125 " transform="matrix(0.1,0,0,-0.1,0,149.41)"/>
<path style=" stroke:none;fill-rule:nonzero;fill:rgb(98.822021%,68.626404%,9.01947%);fill-opacity:1;" d="M 67.246094 8.871094 L 53.453125 8.871094 C 38.34375 23.054688 27.800781 43.660156 25.398438 67.351563 C 22.46875 96.226563 32.3125 123.011719 49.789063 140.535156 L 54.453125 140.535156 C 39.332031 123.257813 31.0625 98.382813 33.769531 71.707031 C 36.445313 45.324219 49.28125 22.808594 67.246094 8.871094 "/>
<path style="fill:none;stroke-width:0.5;stroke-linecap:butt;stroke-linejoin:miter;stroke:rgb(98.822021%,68.626404%,9.01947%);stroke-opacity:1;stroke-miterlimit:4;" d="M 672.460938 1405.389062 L 534.53125 1405.389062 C 383.4375 1263.553125 278.007813 1057.498437 253.984375 820.584375 C 224.6875 531.834375 323.125 263.982812 497.890625 88.748437 L 544.53125 88.748437 C 393.320313 261.521875 310.625 510.271875 337.695313 777.029687 C 364.453125 1040.857812 492.8125 1266.014062 672.460938 1405.389062 Z M 672.460938 1405.389062 " transform="matrix(0.1,0,0,-0.1,0,149.41)"/>
<path style=" stroke:none;fill-rule:nonzero;fill:rgb(100%,100%,100%);fill-opacity:1;" d="M 82.089844 65.636719 C 82.089844 54.277344 78.652344 43.71875 72.765625 34.921875 C 75.066406 42.304688 76.050781 50.179688 76.324219 58.355469 C 77.074219 80.902344 66.699219 99.902344 52.101563 114.851563 C 70.199219 106.777344 82.089844 87.023438 82.089844 65.636719 "/>
<path style=" stroke:none;fill-rule:nonzero;fill:rgb(98.822021%,68.626404%,9.01947%);fill-opacity:1;" d="M 71.253906 78.953125 C 70.871094 70.910156 68.128906 63.546875 63.746094 57.519531 C 65.59375 62.667969 66.542969 68.214844 67.007813 73.996094 C 68.289063 89.941406 61.726563 103.757813 52.101563 114.851563 C 64.390625 108.507813 71.976563 94.105469 71.253906 78.953125 "/>
<path style="fill:none;stroke-width:0.5;stroke-linecap:butt;stroke-linejoin:miter;stroke:rgb(98.822021%,68.626404%,9.01947%);stroke-opacity:1;stroke-miterlimit:4;" d="M 712.539063 704.56875 C 708.710938 784.998437 681.289063 858.63125 637.460938 918.904687 C 655.9375 867.420312 665.429688 811.951562 670.078125 754.139062 C 682.890625 594.685937 617.265625 456.521875 521.015625 345.584375 C 643.90625 409.021875 719.765625 553.045312 712.539063 704.56875 Z M 712.539063 704.56875 " transform="matrix(0.1,0,0,-0.1,0,149.41)"/>
</g>
</svg>
