<svg width="130" height="105" viewBox="0 0 130 105" fill="none" xmlns="http://www.w3.org/2000/svg">
<g clip-path="url(#clip0_951_2802)">
<path d="M65.9305 16.9902C66.5079 16.5006 66.2058 15.3971 67.0852 15.2095C67.6966 15.0414 68.0499 15.609 68.3544 16.0231C68.1473 16.1035 67.9427 16.1888 67.7405 16.2765C67.6284 16.123 67.4068 15.8136 67.2947 15.6577C67.0998 16.0012 66.9732 16.3763 66.8976 16.7637C67.3459 16.7685 67.799 16.7758 68.2496 16.7856C68.2472 16.9293 68.2423 17.2168 68.2399 17.3605C67.4774 17.3605 66.7174 17.3605 65.9549 17.358C65.95 17.2655 65.9379 17.0828 65.9305 16.9902Z" fill="#00468C"/>
<path d="M13.5125 17.5504C13.5466 17.0145 13.5661 16.2423 14.2433 16.1229C14.789 15.9353 15.2397 16.3251 15.4784 16.7782C15.3347 16.939 15.1763 17.0876 15.0229 17.2386C14.8791 17.0656 14.5941 16.7246 14.4504 16.5516C14.2994 16.8951 14.1654 17.2483 14.0485 17.604C14.6331 17.6941 15.5417 17.3799 15.5831 18.2544C14.7841 18.2983 13.9851 18.2934 13.1861 18.2983C13.152 18.1838 13.0862 17.9572 13.0546 17.8452C13.1691 17.7721 13.398 17.6235 13.5125 17.5504Z" fill="#00468C"/>
<path d="M3.83917 18.0303C4.21188 18.0254 4.58459 18.0254 4.9573 18.0254C4.96948 20.5247 4.9646 23.0241 4.9646 25.521C5.04499 26.6489 4.12905 27.6647 3.06452 27.9083C1.6833 28.2956 0.097461 27.1921 0.0219448 25.7524C-0.0219034 24.7098 0.0146344 23.6648 0.0195064 22.6221C0.397088 22.6246 0.777104 22.6294 1.15712 22.6368C1.18392 23.6501 1.10597 24.6708 1.1961 25.6842C1.31059 26.5563 2.44821 27.1214 3.18388 26.5807C3.73198 26.2688 3.86353 25.5941 3.83917 25.0119C3.83917 22.6855 3.82699 20.3567 3.83917 18.0303Z" fill="#00468C"/>
<path d="M16.392 18.0159C16.7817 18.0207 17.1715 18.0256 17.5637 18.0329C17.5661 20.106 17.5832 22.179 17.5612 24.2521C17.6002 25.1656 16.8719 26.0084 15.951 26.0669C14.6673 26.1424 13.3762 26.0815 12.09 26.0815C12.09 25.6893 12.09 25.2947 12.0924 24.9025C13.2885 24.8659 14.4894 24.9244 15.6855 24.8781C16.0412 24.9146 16.4066 24.6418 16.3603 24.2642C16.4139 22.1814 16.3432 20.0987 16.392 18.0159Z" fill="#00468C"/>
<path d="M18.6818 18.0305C19.0593 18.0256 19.4394 18.0232 19.8169 18.0256C19.946 20.7077 19.8608 23.397 19.8169 26.0815C19.4369 26.0839 19.0569 26.0839 18.6769 26.0815C18.6818 23.397 18.672 20.715 18.6818 18.0305Z" fill="#00468C"/>
<path d="M45.2293 18.0621C45.5947 18.0158 45.9626 18.011 46.3304 17.9963C46.3645 19.1949 46.3475 20.3934 46.345 21.5943C47.239 20.9999 48.2061 20.2959 49.3437 20.4153C50.3888 20.4323 51.2609 21.3507 51.4046 22.3544C51.5021 23.1461 51.5142 23.9572 51.3924 24.7465C51.2341 25.5796 50.3888 26.1082 49.5752 26.0888C48.2743 26.118 46.9735 26.0814 45.6751 26.0961C44.613 26.0814 43.5217 26.213 42.5034 25.833C41.9578 26.0303 41.3829 26.1326 40.8031 26.1034C37.8677 26.0644 34.9275 26.1448 31.9945 26.0644C31.919 26.0132 31.7704 25.9109 31.6973 25.8598C31.4683 25.0461 31.6461 24.1594 31.6047 23.3166C31.5585 22.7733 31.7655 22.0328 31.1979 21.6991C30.7521 21.3239 30.0165 21.7819 30.0262 22.3227C29.9556 23.8647 30.0725 25.4091 29.9848 26.9487C29.9897 27.5357 29.2442 27.4115 28.8545 27.47C27.6511 27.4602 26.438 27.5431 25.2419 27.3945C23.7608 27.1923 22.7645 25.4408 23.354 24.0644C23.5927 23.2362 24.3552 22.766 25.0543 22.3641C25.2614 22.693 25.466 23.0243 25.6731 23.3556C25.22 23.6893 24.6207 23.9402 24.4477 24.5273C24.1359 25.3117 24.8156 26.2057 25.6243 26.2495C26.684 26.3129 27.7461 26.2568 28.8058 26.2715C28.8423 24.8756 28.7497 23.4774 28.8472 22.084C28.9641 20.6053 30.9762 19.8526 32.053 20.8489C33.2247 21.8477 32.6839 23.5553 32.7911 24.8902C35.7995 24.8683 38.8105 24.9365 41.8165 24.8537C41.8579 23.4603 41.7726 22.0669 41.8555 20.6784C42.2038 20.5493 42.5814 20.5663 42.937 20.6638C43.1076 22.0572 42.9687 23.4676 43.0126 24.8683C43.7239 24.8902 44.4401 24.8927 45.1538 24.8927C45.1928 22.6174 45.0369 20.3252 45.2293 18.0621ZM46.3523 23.073C46.3499 23.6795 46.3475 24.2837 46.3475 24.8902C47.5119 24.8659 48.6812 24.9487 49.8456 24.8513C50.4253 24.7027 50.2183 23.9792 50.2767 23.5407C50.323 22.8026 50.2475 21.7478 49.3291 21.6065C48.172 21.5407 47.2171 22.4031 46.3523 23.073Z" fill="#00468C"/>
<path d="M66.5005 18.0158C66.8733 18.067 67.3458 17.9038 67.6552 18.1401C67.7234 20.7856 67.6747 23.4335 67.6747 26.079C67.2874 26.0863 66.8976 26.0912 66.5127 26.0936C66.4543 23.4018 66.4786 20.7076 66.5005 18.0158Z" fill="#00468C"/>
<path d="M77.4846 18.0499C77.8743 18.0304 78.2617 18.0134 78.6539 17.9988C78.7196 20.2911 78.6417 22.5833 78.6977 24.8756C82.0838 24.8902 85.4723 24.9219 88.8583 24.8586C88.89 23.4165 88.8145 21.9719 88.9168 20.5322C89.287 20.6126 89.7474 20.4933 90.0544 20.7783C90.108 22.14 90.0519 23.5066 90.0714 24.8708C91.0507 24.9 92.03 24.8976 93.0117 24.8732C93.0409 23.4627 93.0068 22.0523 93.0336 20.6418C93.4282 20.6492 93.8229 20.6613 94.2199 20.6735C94.198 22.0474 94.2589 23.4213 94.198 24.7928C94.1591 25.548 93.4356 26.1277 92.6974 26.0888C91.6451 26.1107 90.5635 26.1935 89.5574 25.833C89.0727 25.9913 88.5733 26.1253 88.0617 26.1009C85.2969 26.0912 82.5344 26.0936 79.772 26.1009C79.2263 26.1204 78.6977 25.9865 78.1813 25.8354C76.6515 26.3275 75.0145 26.0206 73.4384 26.0863C71.8477 26.0985 70.6491 24.3495 71.1461 22.8562C71.3702 21.95 72.1765 21.4019 72.9585 21.0024C73.1387 21.3483 73.319 21.6942 73.4993 22.0426C73.0291 22.3739 72.3446 22.6418 72.2764 23.2971C72.0693 24.0401 72.6735 24.8781 73.4481 24.8756C74.7855 24.9195 76.1228 24.8854 77.4627 24.8756C77.5114 22.6004 77.47 20.3252 77.4846 18.0499Z" fill="#00468C"/>
<path d="M48.155 18.3032C48.5082 18.3105 48.8639 18.3203 49.2171 18.3349C49.222 18.7173 49.222 19.1022 49.2195 19.4871C48.8639 19.4969 48.5106 19.5017 48.1574 19.5066C48.1477 19.1047 48.1477 18.7027 48.155 18.3032Z" fill="#00468C"/>
<path d="M88.9045 18.3594C89.2699 18.3569 89.6353 18.3545 90.0032 18.3545C89.9886 18.7394 89.974 19.1243 89.9593 19.5092C89.611 19.5019 89.2675 19.4945 88.9216 19.4848C88.9119 19.1097 88.907 18.7345 88.9045 18.3594Z" fill="#00468C"/>
<path d="M13.7074 18.861C14.0874 18.8513 14.4674 18.844 14.8499 18.8391C14.9108 20.6978 14.8815 22.5589 14.8669 24.4176C14.4772 24.42 14.0898 24.4151 13.7025 24.4103C13.705 22.5613 13.6976 20.71 13.7074 18.861Z" fill="#00468C"/>
<path d="M74.4347 21.4456C74.4152 20.8341 74.6052 19.9474 75.3896 19.984C76.0181 19.8744 76.2812 20.5369 76.4907 20.99C76.0498 20.9267 75.6332 20.7732 75.2069 20.6636C75.1168 20.9389 75.0535 21.2215 74.9901 21.5016C75.5553 21.6015 76.5053 21.2653 76.4907 22.1374C75.6844 22.1593 74.8805 22.1545 74.0742 22.1593C74.0547 22.0448 74.0181 21.8207 73.9987 21.7087C74.1058 21.6429 74.3251 21.5113 74.4347 21.4456Z" fill="#00468C"/>
<path d="M7.74406 20.5175C9.09117 20.045 10.7233 20.9341 10.9401 22.3689C11.0375 23.5796 10.9791 24.8 10.9791 26.0156C11.0181 27.085 10.1655 28.074 9.12528 28.2616C8.50897 28.3396 7.88535 28.303 7.26904 28.303C7.26417 27.9157 7.25929 27.5235 7.31045 27.1386C7.90727 27.0704 8.5114 27.1289 9.10579 27.0412C9.48824 26.8609 9.6685 26.4541 9.9048 26.1301C8.85244 26.0716 7.60521 26.2616 6.8135 25.3969C5.52485 24.0254 5.80256 21.1631 7.74406 20.5175ZM7.99497 21.7087C7.09364 22.1302 7.17403 23.3189 7.36891 24.1301C7.76355 25.1094 8.94258 24.8756 9.78056 24.8999C9.76351 24.0765 9.84146 23.2459 9.72697 22.4274C9.49555 21.7599 8.64051 21.3482 7.99497 21.7087Z" fill="#00468C"/>
<path d="M52.647 22.1303C53.0757 20.4373 55.4581 19.8136 56.6713 21.056C57.7991 22.0036 57.3485 23.6065 57.4216 24.8879C59.6895 24.8805 61.9574 24.9147 64.2253 24.8684C64.2862 23.4725 64.1912 22.0743 64.274 20.6809C64.6248 20.5859 64.9927 20.6005 65.3556 20.5883C65.38 21.9866 65.397 23.3873 65.3629 24.788C65.3897 25.531 64.6687 26.1059 63.9574 26.0839C61.8088 26.1132 59.6554 26.0912 57.5044 26.0888C57.3509 26.7417 57.1195 27.4164 56.547 27.8232C55.748 28.5224 54.6177 28.2739 53.6506 28.2739C53.6945 27.8793 53.7432 27.4895 53.7943 27.0973C54.3692 27.0851 54.9563 27.146 55.5288 27.0462C55.938 26.8951 56.1232 26.4542 56.3692 26.1253C55.3315 26.0669 54.0988 26.2739 53.3144 25.4189C52.3693 24.6053 52.5057 23.2387 52.647 22.1303ZM54.3936 21.7454C53.5386 22.2082 53.6482 23.38 53.8577 24.1741C54.2718 25.1193 55.4289 24.8659 56.2547 24.9C56.245 24.1181 56.2937 23.3361 56.2206 22.5566C56.0744 21.7844 55.0659 21.3045 54.3936 21.7454Z" fill="#00468C"/>
<path d="M41.8652 27.0364C42.2306 27.0388 42.5961 27.0461 42.9639 27.0559C42.9541 27.4188 42.9517 27.7842 42.9127 28.1472C42.5668 28.1959 42.216 28.1984 41.8677 28.2032C41.8628 27.8135 41.8628 27.4237 41.8652 27.0364Z" fill="#00468C"/>
<path d="M63.5603 27.0948C63.9184 27.0412 64.2838 27.0339 64.6492 27.0168C64.6444 27.3944 64.6444 27.772 64.603 28.1472C64.352 28.2007 64.0963 28.2373 63.8405 28.2081C63.307 28.1569 63.5969 27.4529 63.5603 27.0948Z" fill="#00468C"/>
<path d="M92.3589 27.0413C92.7316 27.0461 93.1067 27.0534 93.4819 27.0681C93.4819 27.4286 93.4794 27.7891 93.4794 28.1496C93.1067 28.1521 92.734 28.1521 92.3637 28.1521C92.3589 27.7818 92.3564 27.4115 92.3589 27.0413Z" fill="#00468C"/>
<path d="M25.6317 28.481C26.0044 28.481 26.3747 28.4858 26.7474 28.4907C26.7474 28.8585 26.7474 29.2264 26.745 29.5966C26.3747 29.5942 26.0044 29.5918 25.6341 29.5869C25.6317 29.2191 25.6317 28.8488 25.6317 28.481Z" fill="#00468C"/>
<path d="M27.3076 28.4931C27.6852 28.4883 28.0652 28.4858 28.4452 28.4858C28.4355 28.8439 28.4331 29.202 28.399 29.5601C28.0384 29.6015 27.6755 29.5942 27.3149 29.604C27.3076 29.2337 27.3076 28.8634 27.3076 28.4931Z" fill="#00468C"/>
<path d="M0.00488281 35.0923C8.43104 35.102 16.8572 35.0874 25.2833 35.0996C25.276 37.6062 25.2833 40.1129 25.2809 42.6196C19.873 42.6244 14.4675 42.6147 9.06196 42.6244C9.06927 45.7961 9.06196 48.9678 9.0644 52.1395C13.8706 52.1419 18.6744 52.1395 23.4807 52.1395C23.5416 54.4342 23.4442 56.7265 23.5392 59.0212C18.7134 59.0382 13.8877 59.0261 9.0644 59.0285C9.06927 64.7848 9.05709 70.5435 9.06927 76.2998C6.04862 76.3071 3.02797 76.2974 0.00731748 76.3071C0.00975349 62.568 0.0121908 48.8289 0.00488281 35.0923Z" fill="#00468C"/>
<path d="M36.6789 35.0996C40.065 35.0898 43.4535 35.0947 46.8395 35.0971C51.8674 48.8314 56.8881 62.568 61.9233 76.3022C58.6176 76.2998 55.312 76.3071 52.0063 76.2973C51.1391 73.5544 50.2402 70.8188 49.3632 68.0783C44.0357 68.0758 38.7081 68.0807 33.3806 68.0758C32.4232 70.8115 31.5292 73.569 30.5719 76.3047C27.4465 76.2949 24.3211 76.312 21.1932 76.2949C26.3795 62.5729 31.517 48.8314 36.6789 35.0996ZM35.7459 60.7702C39.4901 60.7848 43.2342 60.7727 46.9759 60.7751C45.7896 57.1625 44.6276 53.5402 43.4462 49.9276C42.7495 47.7717 42.0211 45.6231 41.4827 43.421C39.7045 49.2479 37.7118 55.0042 35.7459 60.7702Z" fill="#00468C"/>
<path d="M64.8198 35.0945C68.8295 35.0945 72.8392 35.0945 76.8513 35.0945C79.9304 35.1164 83.0704 34.9045 86.0716 35.7498C89.1214 36.5171 92.0715 38.3977 93.3796 41.3526C94.9532 44.9555 94.4587 49.6009 91.6451 52.4681C90.5733 53.5936 89.1702 54.3438 87.6915 54.7896C89.8815 55.3207 92.0373 56.3438 93.4746 58.1318C95.5306 60.5995 95.8594 64.0733 95.2212 67.1207C94.6439 69.9806 92.7974 72.5213 90.298 74.0097C87.4455 75.749 84.0375 76.2728 80.744 76.2996C75.4359 76.3045 70.1279 76.302 64.8198 76.2996C64.8223 62.5654 64.8271 48.8287 64.8198 35.0945ZM73.8793 42.2052C73.8866 45.4305 73.8818 48.6558 73.8818 51.881C76.0352 51.8591 78.1935 51.9541 80.3421 51.8226C82.0887 51.7008 84.0009 50.9066 84.6782 49.1673C85.2457 47.6083 85.292 45.7179 84.3932 44.271C83.3993 42.7606 81.487 42.2515 79.7769 42.2101C77.8111 42.193 75.8452 42.2101 73.8793 42.2052ZM73.8842 58.105C73.8818 61.7956 73.8818 65.4886 73.8818 69.1816C76.1765 69.1353 78.4785 69.2839 80.7659 69.0866C82.5905 68.9453 84.4906 68.0001 85.2165 66.2316C85.923 64.4143 85.8718 62.2487 84.9388 60.5216C84.0107 58.8748 82.0497 58.2122 80.2592 58.1416C78.135 58.0539 76.0084 58.127 73.8842 58.105Z" fill="#00468C"/>
<path d="M5.56391 82.8429C6.5505 82.514 7.02308 84.1486 5.96098 84.3532C5.00363 84.6212 4.63092 83.0524 5.56391 82.8429Z" fill="#00468C"/>
<path d="M28.9056 83.0376C29.3271 83.0327 29.7461 83.0303 30.1675 83.0278C30.1675 83.8829 30.1699 84.7355 30.1504 85.5905C31.2052 84.9718 32.8057 85.0351 33.4537 86.1995C34.1918 87.6246 34.0968 89.7561 32.6668 90.7256C31.5438 91.4735 30.1236 91.1714 28.9129 90.8377C28.9081 88.2385 28.9178 85.6368 28.9056 83.0376ZM30.1699 86.4504C30.2235 87.666 30.0311 88.9303 30.2649 90.1215C30.9641 90.3042 31.863 90.236 32.26 89.5417C32.7204 88.6891 32.7448 87.532 32.2137 86.7062C31.7387 86.0217 30.835 86.1971 30.1699 86.4504Z" fill="#00468C"/>
<path d="M50.1088 83.0328C50.518 83.0328 50.9273 83.0304 51.3414 83.0328C51.3438 83.8952 51.3463 84.7599 51.3316 85.6223C52.0429 85.291 52.8468 85.0523 53.6288 85.2837C54.3328 85.4615 54.7664 86.1874 54.7664 86.8866C54.8102 88.2873 54.7615 89.688 54.7835 91.0887C54.3742 91.0863 53.9674 91.0863 53.5606 91.0887C53.5289 89.6904 53.6507 88.2824 53.4997 86.8915C53.2804 85.9244 52.0137 86.1095 51.3852 86.5407C51.2756 88.051 51.373 89.5735 51.3438 91.0887C50.9297 91.0863 50.518 91.0863 50.1063 91.0863C50.1161 88.4018 50.1112 85.7173 50.1088 83.0328Z" fill="#00468C"/>
<path d="M61.0756 83.0376C61.4946 83.0327 61.916 83.0303 62.3399 83.0303C62.3374 83.8853 62.3423 84.7404 62.3228 85.5978C63.1413 85.1545 64.218 84.9961 65.0243 85.5515C65.911 86.1679 66.1157 87.3469 66.0669 88.3578C66.045 89.3907 65.5091 90.4601 64.5396 90.901C63.4409 91.4272 62.1912 91.1324 61.078 90.8279C61.0804 88.2312 61.0829 85.6344 61.0756 83.0376ZM62.3423 86.4456C62.3325 87.6782 62.3325 88.9108 62.3447 90.1434C62.9683 90.1702 63.7186 90.3432 64.2034 89.8267C64.9293 89.0448 64.9098 87.7659 64.486 86.8426C64.0572 86.0412 63.0536 86.1581 62.3423 86.4456Z" fill="#00468C"/>
<path d="M66.9463 83.0597C67.3264 82.5895 68.2374 82.8161 68.2813 83.447C68.4323 84.0657 67.6674 84.6211 67.1388 84.2533C66.693 84.0511 66.5688 83.3788 66.9463 83.0597Z" fill="#00468C"/>
<path d="M89.5404 83.0303C89.9521 83.0327 90.3613 83.0351 90.7755 83.0425C90.7755 84.6064 90.7657 86.1727 90.7828 87.7391C91.4478 86.9133 92.1055 86.0777 92.7876 85.2617C93.2456 85.2641 93.7035 85.269 94.1639 85.2763C93.4258 86.1411 92.717 87.0302 91.974 87.8901C92.544 88.6233 93.114 89.359 93.6938 90.0874C93.8278 90.1166 94.0957 90.1775 94.2297 90.2068C94.2248 90.4479 94.2151 90.9278 94.2102 91.1665C93.7084 91.1008 93.1213 91.1617 92.7437 90.7597C92.0129 89.9851 91.438 89.0813 90.7779 88.2482C90.7681 89.1934 90.773 90.1385 90.7779 91.0837C90.3613 91.0837 89.9472 91.0861 89.5355 91.0886C89.5526 88.4017 89.5428 85.7148 89.5404 83.0303Z" fill="#00468C"/>
<path d="M0.00976261 83.6638C1.43483 83.6711 2.85989 83.6663 4.28739 83.6687C4.28496 84.0292 4.28496 84.3922 4.28739 84.7551C3.27645 84.7551 2.26794 84.7551 1.25943 84.7551C1.26187 85.4153 1.26187 86.0779 1.26431 86.7405C2.15832 86.7405 3.05477 86.7381 3.95122 86.7381C3.95122 87.0718 3.95366 87.408 3.95366 87.7466C3.05477 87.7441 2.15588 87.7441 1.257 87.7441C1.26431 88.8574 1.25944 89.9706 1.26674 91.0863C0.84775 91.0863 0.426318 91.0863 0.00732422 91.0888C0.0121962 88.6138 0.0073266 86.1388 0.00976261 83.6638Z" fill="#00468C"/>
<path d="M24.214 83.6541C24.6817 83.6638 25.1543 83.6516 25.622 83.7125C26.5939 86.1412 27.393 88.6381 28.3186 91.0863C27.8436 91.0863 27.371 91.0863 26.8984 91.0863C26.7157 90.526 26.5306 89.9682 26.3455 89.4103C25.3443 89.4152 24.3431 89.4128 23.3419 89.4128C23.1519 89.9682 22.9643 90.526 22.7743 91.0839C22.3309 91.0863 21.8876 91.0863 21.4467 91.0887C22.3894 88.6186 23.2858 86.129 24.214 83.6541ZM23.7024 88.302C24.4697 88.3093 25.2395 88.3093 26.0069 88.3044C25.6244 87.1765 25.2298 86.0511 24.9058 84.9037C24.4965 86.034 24.1238 87.1765 23.7024 88.302Z" fill="#00468C"/>
<path d="M43.1758 83.6687C44.8834 83.7345 47.0149 83.3131 48.2622 84.7917C49.4826 86.3727 49.4217 88.9865 47.8919 90.3482C46.574 91.4493 44.7421 90.9987 43.1709 91.0864C43.1758 88.6138 43.1685 86.1413 43.1758 83.6687ZM44.479 84.7284C44.479 86.4896 44.4815 88.2484 44.479 90.0096C45.4437 90.0048 46.6593 90.1363 47.278 89.2155C47.9284 88.1802 47.8919 86.7673 47.3754 85.6857C46.7981 84.6529 45.4973 84.7162 44.479 84.7284Z" fill="#00468C"/>
<path d="M72.33 91.0862C72.3397 88.6137 72.33 86.1411 72.3348 83.6686C73.66 83.7295 75.0778 83.4615 76.3274 84.0145C77.5747 84.6454 77.4651 86.6064 76.2251 87.1983C77.7208 87.7002 77.8524 89.9096 76.5443 90.6891C75.2605 91.398 73.7234 90.9766 72.33 91.0862ZM73.5967 84.7331C73.5991 85.4176 73.5991 86.1021 73.5991 86.7891C74.157 86.7696 74.7246 86.8183 75.2775 86.7014C76.0765 86.4822 76.191 85.2374 75.4529 84.872C74.861 84.6527 74.2106 84.7599 73.5967 84.7331ZM73.5991 87.6904C73.5991 88.487 73.5991 89.2884 73.6016 90.0875C74.2422 90.0509 74.9219 90.141 75.5309 89.895C76.1106 89.61 76.1496 88.8427 75.9572 88.3043C75.4822 87.4687 74.386 87.7513 73.5991 87.6904Z" fill="#00468C"/>
<path d="M16.2189 83.788C16.5575 83.7758 16.8961 83.7661 17.2347 83.7563C17.2323 84.2582 17.2347 84.7649 17.2323 85.2691C17.6781 85.2667 18.1239 85.2642 18.5697 85.2667C18.5672 85.503 18.5623 85.9755 18.5599 86.2118C18.1166 86.207 17.6732 86.207 17.2323 86.207C17.2907 87.4225 17.1105 88.6576 17.3395 89.8585C17.6294 90.3652 18.253 90.0729 18.7158 90.1095C18.7085 90.4383 18.7012 90.7647 18.6939 91.096C18.1019 91.1374 17.4905 91.2495 16.9059 91.0912C16.3699 90.9206 16.0265 90.3774 16.0386 89.8269C15.985 88.6211 16.0362 87.4128 16.0216 86.207C15.8316 86.2094 15.454 86.2094 15.2664 86.2118C15.2567 85.8952 15.2494 85.5809 15.2421 85.2691C15.4394 85.2691 15.834 85.2691 16.0313 85.2691C16.0898 84.7746 16.1531 84.2801 16.2189 83.788Z" fill="#00468C"/>
<path d="M5.1571 85.2739C5.57366 85.269 5.99266 85.2666 6.40922 85.2642C6.40678 87.2032 6.40434 89.1447 6.41165 91.0862C5.99509 91.0862 5.57854 91.0862 5.16442 91.0887C5.15954 89.1496 5.16928 87.213 5.1571 85.2739Z" fill="#00468C"/>
<path d="M8.7843 85.749C9.34946 85.3154 10.034 85.1546 10.738 85.1888C10.7502 85.5639 10.7648 85.939 10.7794 86.3166C10.0827 86.2606 9.38599 86.3434 8.79648 86.7405C8.8184 88.1899 8.79891 89.6393 8.81109 91.0888C8.39697 91.0863 7.98529 91.0863 7.57117 91.0888C7.57604 89.1473 7.5736 87.2082 7.57117 85.2691C7.98285 85.2667 8.39454 85.2643 8.80866 85.2643C8.80135 85.3861 8.78917 85.6272 8.7843 85.749Z" fill="#00468C"/>
<path d="M12.0291 85.3959C12.8744 85.0499 13.8098 85.24 14.6819 85.3666C14.6867 85.62 14.6989 86.1291 14.7038 86.3825C13.973 86.3094 12.9913 85.8904 12.3847 86.4677C12.0145 87.4202 13.3226 87.4981 13.895 87.8075C15.152 88.1339 15.4517 89.978 14.431 90.7332C13.4761 91.4493 12.1898 91.1692 11.1229 90.9134C11.1229 90.6601 11.1229 90.1558 11.1229 89.9025C11.8488 90.0876 12.6308 90.3726 13.3786 90.1266C13.8268 89.9804 14.0217 89.3178 13.6125 89.0133C13.0205 88.6626 12.3189 88.5408 11.7465 88.1559C10.7989 87.5152 10.9329 85.8027 12.0291 85.3959Z" fill="#00468C"/>
<path d="M56.0307 85.4128C57.1074 85.2374 58.4058 84.9158 59.3339 85.6734C60.1183 86.431 59.8309 87.6296 59.8772 88.604C59.9259 89.2349 59.6214 90.1606 60.4837 90.3262C60.4862 90.5893 60.491 90.8548 60.5008 91.1203C59.8723 91.2227 59.2194 91.1959 58.7566 90.7014C58.016 91.1788 57.0295 91.3883 56.2256 90.9401C55.2171 90.3969 55.2 88.7063 56.211 88.1582C56.9637 87.7026 57.8748 87.7416 58.7201 87.7172C58.5666 87.2593 58.6689 86.6016 58.189 86.3287C57.4655 86.0242 56.6738 86.3044 55.9625 86.4992C55.982 86.1363 56.0063 85.7733 56.0307 85.4128ZM56.8102 89.0351C56.6373 89.3908 56.6982 89.9072 57.0806 90.1094C57.5873 90.4139 58.1695 90.1265 58.6592 89.9267C58.6518 89.4517 58.647 88.9767 58.6397 88.5016C58.0234 88.5869 57.2292 88.4651 56.8102 89.0351Z" fill="#00468C"/>
<path d="M66.8977 85.2642C67.3167 85.2666 67.7381 85.2666 68.1571 85.269C68.1522 87.2081 68.1547 89.1496 68.1571 91.0887C67.7332 91.0862 67.3143 91.0862 66.8953 91.0862C66.9148 89.1447 66.9074 87.2057 66.8977 85.2642Z" fill="#00468C"/>
<path d="M78.6612 85.4104C79.8402 85.2009 81.5551 84.833 82.2713 86.0997C82.666 87.2154 82.3858 88.4286 82.4833 89.5857C82.3736 90.0412 82.8146 90.1703 83.1312 90.3457C83.1264 90.5479 83.1166 90.9523 83.1118 91.1545C82.4833 91.2129 81.8377 91.1861 81.3676 90.7111C80.6392 91.1715 79.6794 91.3737 78.8828 90.962C77.8183 90.4626 77.8086 88.6795 78.8439 88.1411C79.5942 87.7026 80.493 87.7489 81.3335 87.7148C81.18 87.2569 81.2823 86.6186 80.8146 86.3312C80.1033 86.0291 79.3189 86.2971 78.6173 86.4895C78.6295 86.129 78.6441 85.7684 78.6612 85.4104ZM79.4285 89.0035C79.2361 89.3908 79.3189 89.9121 79.7233 90.1362C80.1764 90.3335 80.7342 90.241 81.141 89.973C81.3164 89.5053 81.2531 88.9937 81.2921 88.5065C80.6636 88.5796 79.8913 88.4797 79.4285 89.0035Z" fill="#00468C"/>
<path d="M83.7231 85.2399C84.1933 85.2765 84.7316 85.1888 85.0995 85.5639C85.8254 85.218 86.6829 85.0475 87.4551 85.352C88.0373 85.6224 88.3686 86.2558 88.4027 86.8818C88.4831 88.2825 88.4076 89.6857 88.4392 91.0888C88.0154 91.0864 87.5915 91.0864 87.1701 91.0864C87.1433 89.6881 87.2456 88.2825 87.1238 86.8891C86.8924 85.8782 85.65 86.1997 84.9704 86.5115C84.9606 88.0365 84.9631 89.5614 84.9704 91.0888C84.5489 91.0864 84.1324 91.0864 83.7158 91.0888C83.728 89.1376 83.7183 87.1888 83.7231 85.2399Z" fill="#00468C"/>
<path d="M34.6571 85.2739C35.0688 85.269 35.4805 85.269 35.8922 85.269C35.8946 86.4603 35.8775 87.6515 35.8873 88.8427C35.8849 89.3104 35.9652 89.8731 36.4378 90.1045C36.9932 90.3238 37.5535 90.0412 38.0797 89.878C38.0797 88.3408 38.0797 86.8062 38.0797 85.2715C38.5133 85.269 38.9494 85.269 39.3854 85.2715C39.3805 87.2203 39.3805 89.1667 39.3854 91.1155C38.8982 91.0862 38.3769 91.1203 37.9579 90.8256C37.1954 91.1544 36.2844 91.3737 35.5073 90.962C34.9105 90.6721 34.6888 89.9632 34.6644 89.3469C34.6352 87.9901 34.6717 86.6308 34.6571 85.2739Z" fill="#00468C"/>
<path d="M93.2845 35.1263C105.518 28.4102 117.762 21.7088 130 15C124.634 23.7209 119.964 32.9071 116.607 42.5951C113.535 51.4451 111.513 60.7166 111.214 70.1001C110.968 75.1207 111.401 80.151 112.122 85.1205C106.468 76.8722 103.304 66.9333 103.255 56.9286C103.17 49.4354 104.8 41.9301 107.974 35.1409C103.077 35.119 98.1785 35.1531 93.2845 35.1263Z" fill="#EF2E24"/>
</g>
<defs>
<clipPath id="clip0_951_2802">
<rect width="130" height="76.191" fill="white" transform="translate(0 15)"/>
</clipPath>
</defs>
</svg>
