<svg width="480" height="190" viewBox="0 0 480 190" fill="none" xmlns="http://www.w3.org/2000/svg">
<path d="M153.324 20.7346L137.47 48.131C150.574 59.2859 159.586 76.5087 159.586 95.8748C159.586 131.095 130.433 160.054 94.4254 160.054C58.6241 160.054 29.4588 131.095 29.4588 94.8935C29.4588 90.5943 29.8461 86.2821 30.6337 82.1765L0.900391 99.3994C0.900391 150.267 44.1383 189.8 94.4254 189.8C147.062 189.8 189.719 147.337 189.719 95.4874C189.719 65.1473 175.04 38.5384 153.324 20.7346ZM107.736 32.4833L123.784 4.69949C114.786 1.36853 106.768 0 98.7376 0C92.6695 0 87.3891 0.787552 83.4771 1.56219L63.1299 36.7825C70.5664 32.4833 80.1591 30.1335 90.5264 30.1335C96.5815 30.1335 102.056 30.9082 107.736 32.4833ZM257.371 126.563C250.709 126.563 244.654 128.732 239.993 132.722L238.651 127.997H226.889V187.541H241.865V155.186C241.865 148.292 246.475 141.32 255.293 141.32C262.187 141.32 266.292 146.175 266.292 154.309V187.541H281.269V153.198C281.256 137.021 271.883 126.563 257.371 126.563ZM454.117 126.563C447.442 126.563 441.4 128.732 436.739 132.722L435.397 127.997H423.622V187.541H438.598V155.186C438.598 148.292 443.208 141.32 452.026 141.32C458.92 141.32 463.025 146.175 463.025 154.309V187.541H477.989V153.198C478.002 137.021 468.629 126.563 454.117 126.563ZM385.148 126.563C368.364 126.563 355.208 140.249 355.208 157.704C355.208 175.172 368.351 188.858 385.148 188.858C401.932 188.858 415.088 175.172 415.088 157.704C415.088 140.249 401.932 126.563 385.148 126.563ZM385.148 174.114C376.601 174.114 370.404 167.219 370.404 157.717C370.404 148.215 376.601 141.32 385.148 141.32C393.695 141.32 399.892 148.215 399.892 157.717C399.892 167.219 393.695 174.114 385.148 174.114ZM319.73 126.563C302.946 126.563 289.803 140.249 289.803 157.704C289.803 175.172 302.946 188.858 319.73 188.858C336.514 188.858 349.67 175.172 349.67 157.704C349.67 140.249 336.514 126.563 319.73 126.563ZM319.73 174.114C311.183 174.114 304.986 167.219 304.986 157.717C304.986 148.215 311.183 141.32 319.73 141.32C328.277 141.32 334.474 148.215 334.474 157.717C334.474 167.219 328.277 174.114 319.73 174.114ZM464.368 28.6359V46.3881C464.368 55.1674 457.229 62.3199 448.436 62.3199H371.721V47.1757C371.721 38.3189 367.822 29.9657 361.031 24.2592C354.253 18.5656 345.293 16.19 336.449 17.7522C324.223 19.9083 314.553 29.5655 312.397 41.8048C310.834 50.6486 313.21 59.6086 318.903 66.3868C321.708 69.7369 325.214 72.4307 329.174 74.2778C333.134 76.1249 337.451 77.0804 341.82 77.0768H356.732C356.022 82.3364 353.502 87.1844 349.605 90.7879C345.383 94.7173 339.828 96.8995 334.061 96.8947H332.937V111.652H334.061C343.744 111.652 352.949 107.959 359.972 101.259C366.712 94.829 370.792 86.2821 371.527 77.0639H448.411C465.336 77.0639 479.099 63.3011 479.099 46.3752V28.6359H464.368ZM356.964 47.1757V62.307H341.833C339.619 62.3089 337.432 61.8241 335.426 60.8871C333.42 59.9501 331.645 58.5836 330.226 56.8845C327.295 53.3986 326.133 48.9444 326.947 44.3482C328.006 38.306 332.976 33.3354 339.018 32.2767C343.615 31.4633 348.069 32.6253 351.555 35.556C354.989 38.4609 356.964 42.6956 356.964 47.1757ZM263.4 94.3126C284.161 94.3126 301.048 77.4254 301.048 56.665V28.7134H286.291V56.6779C286.291 69.2917 276.027 79.5557 263.413 79.5557C250.8 79.5557 240.536 69.2917 240.536 56.6779V28.7134H225.779V56.6779C225.753 77.4254 242.64 94.3126 263.4 94.3126ZM263.4 17.0421C267.842 17.0421 271.457 13.4271 271.457 8.98584C271.457 4.54456 267.842 0.92957 263.4 0.92957C258.959 0.92957 255.344 4.54456 255.344 8.98584C255.344 13.4271 258.959 17.0421 263.4 17.0421ZM449.482 17.0421C453.923 17.0421 457.538 13.4271 457.538 8.98584C457.538 4.54456 453.923 0.92957 449.482 0.92957C445.041 0.92957 441.426 4.54456 441.426 8.98584C441.426 13.4271 445.041 17.0421 449.482 17.0421Z" fill="black"/>
</svg>
