<svg width="130" height="105" viewBox="0 0 130 105" fill="none" xmlns="http://www.w3.org/2000/svg">
<path fill-rule="evenodd" clip-rule="evenodd" d="M127.483 61.171C126.529 61.171 125.921 60.9974 125.487 60.4767C125.14 60.0428 124.967 59.3485 124.967 58.3071V52.0588H129.219L128.698 47.3726H125.053V43.1202V39.6489C125.053 39.6489 123.405 39.7357 122.884 39.8225C120.107 39.9961 118.284 41.9053 118.284 43.988V47.6329L115.681 47.8065V52.1456H118.284V59.3485C118.284 61.5181 118.892 63.2537 120.02 64.5555C121.148 65.8572 122.884 66.4647 125.14 66.4647C126.268 66.4647 127.136 66.3779 127.917 66.2911C129.132 66.0308 130 64.9894 130 63.6877V60.5635C129.219 60.9106 128.351 61.171 127.483 61.171Z" fill="#FF5215"/>
<path fill-rule="evenodd" clip-rule="evenodd" d="M59.4459 61.7782C60.1402 61.4311 60.6609 61.084 61.008 60.5633V58.9144C59.8798 58.1334 58.6649 57.7863 57.2764 57.7863C56.4085 57.7863 55.7143 57.9598 55.1936 58.3937C54.6729 58.7409 54.4993 59.3483 54.4993 60.0426C54.4993 60.7369 54.7597 61.2576 55.1936 61.6915C55.6275 62.0386 56.3218 62.2989 57.2764 62.2989C57.9706 62.2122 58.7517 62.0386 59.4459 61.7782ZM49.6395 64.7289C48.251 63.6007 47.47 62.0386 47.47 60.0426C47.47 57.9598 48.1642 56.3977 49.5527 55.2696C50.9413 54.1414 52.8505 53.6207 55.4539 53.6207C56.4085 53.6207 57.4499 53.7075 58.4045 53.9678C59.3591 54.2282 60.227 54.4885 61.008 54.8357V54.4885C61.008 52.4925 59.3592 51.5379 56.1482 51.5379C53.8919 51.5379 52.5033 51.7115 50.6809 52.5793C50.6809 52.5793 50.4206 50.7569 50.3338 50.0626C50.1602 48.6741 51.2884 47.6327 53.1108 47.2856C54.4126 47.0253 55.8011 46.9385 57.2764 46.9385C60.6609 46.9385 63.2643 47.6327 65 49.0212C66.7356 50.4098 67.6035 52.319 67.6035 54.7489V63.1668C67.6035 65.4231 66.8224 65.9438 64.9132 65.9438H61.4419L61.2684 64.3817C60.5741 65.076 59.7063 65.5967 58.6649 65.9438C57.6235 66.2909 56.4085 66.5513 55.1068 66.5513C52.9373 66.3777 51.028 65.857 49.6395 64.7289Z" fill="#FF5215"/>
<path fill-rule="evenodd" clip-rule="evenodd" d="M106.482 61.7782C107.176 61.4311 107.697 61.084 108.044 60.5633V58.9144C106.916 58.1334 105.701 57.7863 104.312 57.7863C103.444 57.7863 102.75 57.9598 102.229 58.3937C101.709 58.7409 101.535 59.3483 101.535 60.0426C101.535 60.7369 101.796 61.2576 102.229 61.6915C102.663 62.0386 103.358 62.2989 104.312 62.2989C105.007 62.2122 105.788 62.0386 106.482 61.7782ZM96.6754 64.7289C95.2869 63.6007 94.5059 62.0386 94.5059 60.0426C94.5059 57.9598 95.2001 56.3977 96.5886 55.2696C97.9771 54.1414 99.8864 53.6207 102.49 53.6207C103.444 53.6207 104.486 53.7075 105.44 53.9678C106.395 54.2282 107.263 54.4885 108.044 54.8357V54.4885C108.044 52.4925 106.395 51.5379 103.184 51.5379C100.928 51.5379 99.5392 51.7115 97.7168 52.5793C97.7168 52.5793 97.4565 50.7569 97.3697 50.0626C97.1961 48.6741 98.3243 47.6327 100.147 47.2856C101.448 47.0253 102.837 46.9385 104.312 46.9385C107.697 46.9385 110.3 47.6327 112.036 49.0212C113.772 50.4098 114.639 52.319 114.639 54.7489V63.1668C114.639 65.4231 113.858 65.9438 111.949 65.9438H108.478L108.304 64.3817C107.61 65.076 106.742 65.5967 105.701 65.9438C104.659 66.2909 103.444 66.5513 102.143 66.5513C99.9732 66.3777 98.0639 65.857 96.6754 64.7289Z" fill="#FF5215"/>
<path fill-rule="evenodd" clip-rule="evenodd" d="M11.8024 61.171C10.8478 61.171 10.2403 60.9974 9.80641 60.4767C9.45928 60.0428 9.28571 59.3485 9.28571 58.3071V52.0588H13.5381L13.0174 47.3726H9.3725V43.1202V39.6489C9.3725 39.6489 7.72363 39.7357 7.20294 39.8225C4.4259 39.9961 2.60347 41.9053 2.60347 43.988V47.6329L0 47.8065V52.1456H2.60347V59.3485C2.60347 61.5181 3.21095 63.2537 4.33912 64.5555C5.46729 65.8572 7.20293 66.4647 9.45927 66.4647C10.5874 66.4647 11.4553 66.3779 12.2363 66.2911C13.4513 66.0308 14.3191 64.9894 14.3191 63.6877V60.5635C13.4513 60.9106 12.5835 61.171 11.8024 61.171Z" fill="#FF5215"/>
<path fill-rule="evenodd" clip-rule="evenodd" d="M27.51 61.7782C28.2043 61.4311 28.725 61.084 29.0721 60.5633V58.9144C27.9439 58.1334 26.729 57.7863 25.3405 57.7863C24.4727 57.7863 23.7784 57.9598 23.2577 58.3937C22.737 58.7409 22.5634 59.3483 22.5634 60.0426C22.5634 60.7369 22.8238 61.2576 23.2577 61.6915C23.6916 62.0386 24.3859 62.2989 25.3405 62.2989C26.1215 62.2122 26.8158 62.0386 27.51 61.7782ZM17.7904 64.7289C16.4019 63.6007 15.6208 62.0386 15.6208 60.0426C15.6208 57.9598 16.3151 56.3977 17.7036 55.2696C19.0921 54.1414 21.0014 53.6207 23.6048 53.6207C24.5594 53.6207 25.6008 53.7075 26.5554 53.9678C27.51 54.2282 28.3779 54.4885 29.1589 54.8357V54.4885C29.1589 52.4925 27.51 51.5379 24.2991 51.5379C22.0427 51.5379 20.6542 51.7115 18.8318 52.5793C18.8318 52.5793 18.5715 50.7569 18.4847 50.0626C18.3111 48.6741 19.4393 47.6327 21.2617 47.2856C22.5634 47.0253 23.952 46.9385 25.4273 46.9385C28.8118 46.9385 31.4152 47.6327 33.1509 49.0212C34.8865 50.4098 35.7544 52.319 35.7544 54.7489V63.1668C35.7544 65.4231 34.9733 65.9438 33.0641 65.9438H29.5928L29.4192 64.3817C28.725 65.076 27.8572 65.5967 26.8158 65.9438C25.7744 66.2909 24.5594 66.5513 23.2577 66.5513C21.0014 66.3777 19.1789 65.857 17.7904 64.7289Z" fill="#FF5215"/>
<path fill-rule="evenodd" clip-rule="evenodd" d="M45.04 65.7704V38C45.04 38 43.4779 38.0868 42.8705 38.1736C40.0934 38.3471 38.271 40.2563 38.271 42.3391V65.7704H45.04Z" fill="#FF5215"/>
<path fill-rule="evenodd" clip-rule="evenodd" d="M85.0468 59.956C84.179 60.737 83.0508 61.1709 81.7491 61.1709C80.7077 61.1709 79.8399 60.9106 78.9721 60.3899C78.191 59.8692 77.5835 59.1749 77.2364 58.2203V54.9226C77.5835 54.0547 78.191 53.3605 78.9721 52.753C79.7531 52.2323 80.7077 51.972 81.7491 51.972C83.1376 51.972 84.2658 52.4059 85.0468 53.1869C85.9147 53.968 86.3486 55.0961 86.3486 56.4847C86.3486 58.0467 85.9147 59.1749 85.0468 59.956ZM91.9894 51.5381C91.2084 50.0628 89.9934 48.8478 88.5181 48.0668C87.0428 47.2857 85.3072 46.8518 83.398 46.8518C82.183 46.8518 80.9681 47.0254 79.9267 47.3725C78.7985 47.7196 77.9307 48.2403 77.1496 48.8478V38C77.1496 38 75.5008 38.0868 74.9801 38.1736C72.203 38.3471 70.3806 40.2563 70.3806 42.3391V65.7704H76.7157L76.8893 63.9479C78.6249 65.5968 80.7945 66.3779 83.398 66.3779C85.3072 66.3779 87.0428 65.9439 88.5181 65.1629C89.9934 64.3819 91.1216 63.2537 91.9894 61.7784C92.7705 60.3031 93.2044 58.5674 93.2044 56.6582C93.2044 54.749 92.8572 53.0134 91.9894 51.5381Z" fill="#FF5215"/>
</svg>
