<svg width="130" height="105" viewBox="0 0 130 105" fill="none" xmlns="http://www.w3.org/2000/svg">
<path d="M49.3894 71.7405V73.7137H47.9067V79.646H44.9397V73.7137H43.4554V79.646H40.49V73.7137H39.0073V79.646H32.0795L31.0872 77.6762V73.7137H29.0978V79.646H26.1325V67.7813H34.0526V69.7512H29.0978V71.7405H34.0526V77.6762H36.0257V71.7405H40.49V69.7512H43.4554V71.7405H44.9397V69.7512H47.9067V71.7405H49.3894ZM25.1516 73.6974H22.1863V75.6868H25.1516V73.6974ZM61.7608 67.7813H58.7954V69.7512H61.7608V67.7813ZM61.7608 79.646V71.7405L58.7938 71.7243V79.646H61.7608ZM70.6617 73.7137V79.646H67.6947V73.7137H66.2104V79.646H63.2434V71.7405H74.1338L75.1098 73.7137V79.646H72.1444V73.7137H70.6617ZM21.1908 67.7813H18.2238V79.6444H21.1908V67.7813ZM52.3563 73.7137H54.3441V77.6762H52.3563V73.7137ZM57.3111 79.646V71.7405H50.3832L49.3894 73.7137V77.6762L50.3832 79.646H57.3111ZM13.7757 79.646H16.7411V67.7813H11.2975L7.33667 79.646H10.3037L11.7863 75.703H13.7757V79.646ZM13.7757 69.7512V73.7137H12.2768L13.7757 69.7512Z" fill="#2056AE"/>
<path d="M83.0186 77.6782H85.0243V73.719H83.0186V77.6782ZM87.9701 71.7394V80.6468L86.9746 82.6265H80.0483V80.6468H85.0243V79.6578H81.0471L80.0483 77.6782V73.719L81.0422 71.7394H87.9701Z" fill="#2056AE"/>
<path d="M93.4301 76.6919V73.7233H91.9442V79.6572H88.9756V71.7404H95.413L96.4053 73.7167V76.6919H93.4301Z" fill="#2056AE"/>
<path d="M98.4089 79.6577H104.341L105.334 77.6781V73.7189L104.341 71.7409H98.4089L97.415 73.7189V77.6781L98.4089 79.6577ZM100.385 73.7189H102.365V77.6781H100.385V73.7189Z" fill="#2056AE"/>
<path d="M107.311 79.6577L106.319 77.6781V71.7409H109.288V77.6781H110.772V71.7409H113.741V79.6577H107.311Z" fill="#2056AE"/>
<path d="M119.719 73.719H117.713V77.6782H119.719V73.719ZM121.669 79.6578H117.712V82.6265H114.741V71.7394H121.669L122.665 73.719V77.6782L121.669 79.6578Z" fill="#2056AE"/>
<path d="M65.0054 33.8531L67.9594 30.8975L65.0054 27.9436L62.0515 30.8975L65.0054 33.8531ZM62.0368 36.8413L59.078 33.8726L56.0947 36.8282L53.1228 33.8596L65.0054 21.9998L76.8799 33.8726L73.9194 36.8282L70.9671 33.8726L67.9822 36.8608L70.9345 39.8131L67.9822 42.7671L64.9484 39.8131L62.0368 42.7671L59.06 39.8229L62.0368 36.8413Z" fill="#00ADEF"/>
<path d="M64.832 60.5576H67.8006V48.6815H64.832V60.5576Z" fill="#2056AE"/>
<path d="M51.9654 49.6883H48.9968V51.668H51.9654V49.6883Z" fill="#2056AE"/>
<path d="M51.4701 58.5942H49.4905V54.635H51.4701V58.5942ZM10.8887 61.5629H8.90911V57.6036H10.8887V61.5629ZM60.3792 58.5779H54.4388V54.635L53.4498 52.657H46.5219V58.5942H40.583V54.635L39.5924 52.657H32.6629V48.6864H29.6943V57.6052H32.6629V54.635H37.6128V58.5942H23.7555V54.6203H20.7868V58.5942H13.8573V57.6052L12.8684 55.6256H5.93886V58.5942H0V60.5739H5.93886V61.5629L6.92786 63.5425H13.8573V60.5739L62.3589 60.5576L63.3479 58.5779V48.6831H60.3792V58.5779Z" fill="#2056AE"/>
<path d="M22.7664 63.5425H25.735V61.5629H22.7664V63.5425Z" fill="#2056AE"/>
<path d="M18.8071 63.5425H21.7757V61.5629H18.8071V63.5425Z" fill="#2056AE"/>
<path d="M125.049 61.5629H127.028V57.6036H125.049V61.5629ZM122.082 60.5739H120.102V58.5942H122.082V55.6256H129.011L130 57.6052V63.5425H123.072L122.082 61.5629V60.5739Z" fill="#2056AE"/>
<path d="M104.451 61.5629H106.432V57.6036H104.451V61.5629ZM101.482 60.5739H96.9722V58.5942H101.482V55.6256H108.41L109.401 57.6052V63.5425H102.471L101.482 61.5629V60.5739Z" fill="#2056AE"/>
<path d="M94.1681 58.5943H96.1477V56.6147H94.1681V58.5943ZM98.1289 64.5332H91.1995V62.5536H96.1477V60.574H91.1995V56.6147L92.1885 54.6351H99.1179V62.5536L98.1289 64.5332Z" fill="#2056AE"/>
<path d="M75.5057 55.6255H77.4853V53.6459H75.5057V55.6255ZM77.4853 57.6051H72.5371V53.6459L73.5261 51.6679H80.4556V58.5941H82.9305V60.5737H77.4853V57.6051Z" fill="#2056AE"/>
<path d="M112.385 63.5425H115.354V61.5629H112.385V63.5425Z" fill="#2056AE"/>
<path d="M119.719 58.5946V54.6354L118.728 52.6557H111.763V54.6354H116.749V58.5946H107.144V60.5742H122.982V58.5946H119.719Z" fill="#2056AE"/>
<path d="M89.7484 52.6564H83.8079L82.8189 54.636V58.5953H79.575V60.5732H89.7484V58.5953H85.7875V54.636H89.7484V52.6564Z" fill="#2056AE"/>
<path d="M73.5261 50.6772H76.4947V48.6944H73.5261V50.6772Z" fill="#2056AE"/>
<path d="M77.4854 50.6772H80.4556V48.6944H77.4854V50.6772Z" fill="#2056AE"/>
</svg>
