<svg width="130" height="105" viewBox="0 0 130 105" fill="none" xmlns="http://www.w3.org/2000/svg">
<path d="M22.5977 37.7902L34.4678 66.2912L44.5605 41.5353C44.624 41.3449 44.624 41.091 44.624 40.7736C44.624 39.4406 43.8623 38.7423 42.2754 38.7423V38.298H57.002V38.7423C55.6055 38.7423 54.3359 39.1232 53.1299 39.9484C52.0508 40.7101 51.3525 41.6623 50.9082 42.8048L49.0039 47.883L56.4941 66.0373L65.0635 41.5353C65.127 41.3449 65.127 41.091 65.127 40.7736C65.127 39.4406 64.3018 38.8058 62.7783 38.8058V38.3615H78.0762V38.7423C76.6797 38.7423 75.4102 39.1232 74.2041 39.9484C73.125 40.7101 72.4268 41.6623 71.9824 42.8048L57.6367 81.9699L46.7822 55.5001L46.4014 54.6115L35.2295 81.9699L19.9316 43.3761C20.376 42.2335 22.5342 37.5363 22.5977 37.7902Z" fill="#F88C19"/>
<path d="M123.018 76.7012C118.574 73.1465 100.166 54.9922 97.3096 51.6279C103.594 51.4375 107.085 48.2637 108.228 46.9307C110.449 44.2012 111.592 41.0908 111.592 37.5361C111.592 33.4736 110.195 30.1094 107.339 27.2529C104.546 24.46 99.4678 23 95.4688 23H72.6807V23.5713C74.2041 23.5713 75.4736 24.0791 76.4893 25.1582C77.5684 26.1738 78.0762 27.5068 78.0762 28.9668V74.543C78.0762 76.0664 77.5684 77.3359 76.4893 78.3516C75.4736 79.3672 74.2041 79.9385 72.6807 79.9385V80.5098H91.9141V79.9385C90.3906 79.9385 89.1211 79.4307 88.042 78.3516C86.9629 77.3359 86.4551 76.0029 86.4551 74.543V26.4277L92.4219 26.3643C92.8027 26.3643 93.1836 26.3643 93.5645 26.4277H94.3897C97.1191 26.8721 99.2773 28.1416 100.991 30.2363C102.705 32.3311 103.594 34.8066 103.721 37.6631C103.911 41.2178 102.578 44.2012 99.7852 46.6133C98.0713 48.0098 96.2939 49.0254 94.3897 49.5967L93.5645 49.8506C92.5488 50.168 88.042 50.8662 88.042 50.8662L109.243 73.7178C112.227 76.7646 114.639 78.7324 116.479 79.6846C118.32 80.6367 119.971 81.2715 121.367 81.5254C122.573 81.7793 127.524 82.0332 130 82.0332C127.017 79.8115 124.668 78.0342 123.018 76.7012Z" fill="#A62730"/>
<path d="M26.0889 63.8788H18.2178L22.4072 54.5477C22.4072 54.5477 18.916 45.534 18.916 45.5975C16.6943 51.12 4.37988 79.1766 3.42773 79.8748C2.9834 80.1922 2.53906 80.4461 2.03125 80.6366C1.39648 80.8905 0.698242 81.0174 0 81.0174V81.3983H13.7109V80.954C12.5049 80.954 11.8701 80.3192 11.8701 79.0497C11.8701 78.7323 11.9336 78.4784 11.9971 78.2245L17.0752 66.3543H26.9775L26.0889 63.8788Z" fill="#9A9DA1"/>
</svg>
