<svg width="501" height="100" viewBox="0 0 501 100" fill="none" xmlns="http://www.w3.org/2000/svg">
<path d="M73.0382 89.7813L71.5528 99.6223H0.5C3.4399 92.8141 3.25422 88.9767 3.25422 84.0562V16.4075C3.25422 11.6418 3.4399 7.46405 0.5 0.841535H21.7911H69.8198L69.9436 10.8682C68.6438 10.3421 67.5917 9.87787 66.6323 9.44462C64.0638 8.48528 60.8144 7.58784 57.4413 7.61878C52.0566 7.61878 29.4658 7.61878 19.4392 7.61878V46.3017H64.0328L61.8356 53.9145H19.4392V92.6284C27.6399 92.6284 53.8515 92.6284 59.6385 92.6284C66.4157 92.7522 73.162 88.9148 73.162 88.9148L72.9763 89.7504C72.9763 89.7813 73.0073 89.7813 73.0382 89.7813ZM179.989 99.6223C180.948 94.7637 180.948 87.8936 180.174 82.2923L173.861 35.749L139.387 99.5913H132.827L97.7953 32.871L90.9871 83.3135C90.2444 89.1314 90.0278 96.4967 90.6467 99.6223H78.33C80.7129 94.578 81.3009 92.3808 82.415 84.0872L93.5557 0.841535H99.2188L140.099 78.5169L180.948 0.841535H185.219L196.731 83.9015C197.876 92.1642 198.742 94.5471 201.032 99.6223H179.989ZM283.752 99.6223L267.35 63.446H234.362L218.177 99.6223H216.784H205.365H205.303C209.388 94.5471 210.78 92.1951 213.658 85.8821L251.908 0.841535H256.21L293.84 83.4992C297.863 91.5762 299.751 94.0829 305.507 99.6223H283.752ZM386.958 99.6223L370.556 63.446H337.568L321.383 99.6223H320.021H308.571H308.509C312.594 94.5471 313.986 92.1951 316.864 85.8821L355.114 0.841535H359.416L397.077 83.4992C401.1 91.5762 402.988 94.0829 408.744 99.6223H386.958ZM480.478 99.6841C470.606 90.6788 457.825 78.7335 441.826 59.7943C437.246 54.4406 434.027 53.7598 431.954 53.636V84.0562C431.954 88.9458 431.954 92.8141 434.739 99.6223H413.015C415.955 92.8141 415.769 88.9767 415.769 84.0562V16.3457C415.769 11.5799 415.955 7.40216 413.015 0.779642H434.306C448.851 0.779642 483.232 -0.520105 483.232 27.8886C483.232 42.8976 471.318 50.9746 457.33 53.0171L453.183 53.4194C453.183 53.4194 498.55 97.7655 500.5 99.6841H480.478ZM454.761 47.3539L454.73 47.3848C463.891 43.9188 466.985 35.2229 466.676 27.8577C466.335 20.771 463.148 5.3597 431.985 6.59755V48.7155C431.985 48.7155 449.439 49.6749 454.328 47.5396C454.607 47.4158 454.761 47.3539 454.761 47.3539ZM340.724 56.545H367.369L353.938 27.0531L340.724 56.545ZM237.549 56.545H264.194L250.763 27.0531L237.549 56.545Z" fill="black"/>
</svg>
